<mxfile host="app.diagrams.net" modified="2023-05-11T16:47:04.355Z" agent="Mozilla/5.0 (Windows NT 10.0; Win64; x64) AppleWebKit/537.36 (KHTML, like Gecko) Chrome/113.0.0.0 Safari/537.36" etag="eZeIfZQHFuTnayJRy39S" version="21.2.4" type="device">
  <diagram name="Strona-1" id="gPI5THnY8TGZAUqis7eQ">
    <mxGraphModel dx="1674" dy="768" grid="1" gridSize="10" guides="1" tooltips="1" connect="1" arrows="1" fold="1" page="1" pageScale="1" pageWidth="827" pageHeight="1169" math="0" shadow="0">
      <root>
        <mxCell id="0" />
        <mxCell id="1" parent="0" />
        <mxCell id="dG1rmitJ3FAkhmSAQ_D8-5" value="Klient&lt;br&gt;" style="swimlane;fontStyle=1;align=center;verticalAlign=top;childLayout=stackLayout;horizontal=1;startSize=26;horizontalStack=0;resizeParent=1;resizeParentMax=0;resizeLast=0;collapsible=1;marginBottom=0;whiteSpace=wrap;html=1;" parent="1" vertex="1">
          <mxGeometry x="440" y="436" width="300" height="210" as="geometry" />
        </mxCell>
        <mxCell id="dG1rmitJ3FAkhmSAQ_D8-6" value="&lt;div&gt;-id_klienta: int&lt;/div&gt;&lt;div&gt;-imie: str&lt;/div&gt;&lt;div&gt;-nazwisko: str&lt;/div&gt;&lt;div&gt;-haslo: str&lt;/div&gt;&lt;div&gt;-email: str&lt;/div&gt;&lt;div&gt;-nr_telefonu: str&lt;/div&gt;&lt;div&gt;#rezerwacje: List[Rezerwacja]&lt;br&gt;&lt;/div&gt;" style="text;strokeColor=none;fillColor=none;align=left;verticalAlign=top;spacingLeft=4;spacingRight=4;overflow=hidden;rotatable=0;points=[[0,0.5],[1,0.5]];portConstraint=eastwest;whiteSpace=wrap;html=1;" parent="dG1rmitJ3FAkhmSAQ_D8-5" vertex="1">
          <mxGeometry y="26" width="300" height="104" as="geometry" />
        </mxCell>
        <mxCell id="dG1rmitJ3FAkhmSAQ_D8-7" value="" style="line;strokeWidth=1;fillColor=none;align=left;verticalAlign=middle;spacingTop=-1;spacingLeft=3;spacingRight=3;rotatable=0;labelPosition=right;points=[];portConstraint=eastwest;strokeColor=inherit;" parent="dG1rmitJ3FAkhmSAQ_D8-5" vertex="1">
          <mxGeometry y="130" width="300" height="8" as="geometry" />
        </mxCell>
        <mxCell id="dG1rmitJ3FAkhmSAQ_D8-8" value="&lt;div&gt;&lt;span style=&quot;background-color: initial;&quot;&gt;+rezerwuj_samochod(Samochod,date): Rezerwacja&amp;nbsp;&lt;/span&gt;&lt;/div&gt;&lt;div&gt;&lt;span style=&quot;background-color: initial;&quot;&gt;+anuluj_rezerwacje(Rezerwacja): void&amp;nbsp;&lt;/span&gt;&lt;/div&gt;+podpisz_umowe&lt;span style=&quot;background-color: initial;&quot;&gt;(Samochod,UmowaKupna):Płatność&lt;/span&gt;&lt;br&gt;&lt;div&gt;&lt;span style=&quot;background-color: initial;&quot;&gt;+zaloz_konto(): Void&lt;/span&gt;&lt;br&gt;&lt;/div&gt;" style="text;strokeColor=none;fillColor=none;align=left;verticalAlign=top;spacingLeft=4;spacingRight=4;overflow=hidden;rotatable=0;points=[[0,0.5],[1,0.5]];portConstraint=eastwest;whiteSpace=wrap;html=1;" parent="dG1rmitJ3FAkhmSAQ_D8-5" vertex="1">
          <mxGeometry y="138" width="300" height="72" as="geometry" />
        </mxCell>
        <mxCell id="dG1rmitJ3FAkhmSAQ_D8-9" value="Pracownik" style="swimlane;fontStyle=1;align=center;verticalAlign=top;childLayout=stackLayout;horizontal=1;startSize=26;horizontalStack=0;resizeParent=1;resizeParentMax=0;resizeLast=0;collapsible=1;marginBottom=0;whiteSpace=wrap;html=1;" parent="1" vertex="1">
          <mxGeometry x="350" y="70" width="340" height="280" as="geometry" />
        </mxCell>
        <mxCell id="dG1rmitJ3FAkhmSAQ_D8-10" value="&lt;div&gt;-id_pracownika: int&lt;/div&gt;&lt;div&gt;-imie: str&lt;/div&gt;&lt;div&gt;-nazwisko: str&lt;/div&gt;&lt;div&gt;-haslo: str&lt;/div&gt;&lt;div&gt;-email: str&lt;/div&gt;&lt;div&gt;-nr_telefonu: str&lt;/div&gt;&lt;div&gt;#stanowisko; str&lt;/div&gt;" style="text;strokeColor=none;fillColor=none;align=left;verticalAlign=top;spacingLeft=4;spacingRight=4;overflow=hidden;rotatable=0;points=[[0,0.5],[1,0.5]];portConstraint=eastwest;whiteSpace=wrap;html=1;" parent="dG1rmitJ3FAkhmSAQ_D8-9" vertex="1">
          <mxGeometry y="26" width="340" height="104" as="geometry" />
        </mxCell>
        <mxCell id="dG1rmitJ3FAkhmSAQ_D8-11" value="" style="line;strokeWidth=1;fillColor=none;align=left;verticalAlign=middle;spacingTop=-1;spacingLeft=3;spacingRight=3;rotatable=0;labelPosition=right;points=[];portConstraint=eastwest;strokeColor=inherit;" parent="dG1rmitJ3FAkhmSAQ_D8-9" vertex="1">
          <mxGeometry y="130" width="340" height="8" as="geometry" />
        </mxCell>
        <mxCell id="dG1rmitJ3FAkhmSAQ_D8-12" value="&lt;div&gt;+dodaj_samochod(Samochod): void&lt;/div&gt;&lt;div&gt;+usun_samochod(Samochod): void&lt;/div&gt;&lt;div&gt;+zaktualizuj_samochod(Samochod): void&lt;/div&gt;&lt;div&gt;+wypisz_liste_samochodow(): List[Samochod]&lt;/div&gt;&lt;div&gt;+wycen_samochod(Samochod,float): void&lt;/div&gt;&lt;div&gt;+napraw_samochod(Samochod): Naprawa&lt;br&gt;&lt;/div&gt;&lt;div&gt;+dodaj_ubezpieczenie(Samochod, Ubezpieczenie&lt;span style=&quot;background-color: initial;&quot;&gt;): void&lt;/span&gt;&lt;/div&gt;&lt;div&gt;+usun_ubezpieczenie(Ubezpieczenie): void&lt;br&gt;&lt;/div&gt;&lt;div&gt;+zmien_stan_samochodu(Samochod, StanSamochodu): void&lt;br&gt;&lt;/div&gt;&lt;div&gt;&lt;br&gt;&lt;/div&gt;" style="text;strokeColor=none;fillColor=none;align=left;verticalAlign=top;spacingLeft=4;spacingRight=4;overflow=hidden;rotatable=0;points=[[0,0.5],[1,0.5]];portConstraint=eastwest;whiteSpace=wrap;html=1;" parent="dG1rmitJ3FAkhmSAQ_D8-9" vertex="1">
          <mxGeometry y="138" width="340" height="142" as="geometry" />
        </mxCell>
        <mxCell id="dG1rmitJ3FAkhmSAQ_D8-13" value="Rezerwacja" style="swimlane;fontStyle=1;align=center;verticalAlign=top;childLayout=stackLayout;horizontal=1;startSize=26;horizontalStack=0;resizeParent=1;resizeParentMax=0;resizeLast=0;collapsible=1;marginBottom=0;whiteSpace=wrap;html=1;" parent="1" vertex="1">
          <mxGeometry x="140" y="220" width="160" height="120" as="geometry" />
        </mxCell>
        <mxCell id="dG1rmitJ3FAkhmSAQ_D8-14" value="&lt;div&gt;-id_rezerwacji: int&lt;/div&gt;&lt;div&gt;-samochod: Samochod&lt;/div&gt;&lt;div&gt;&lt;span style=&quot;background-color: initial;&quot;&gt;-data_koncowa: date&lt;/span&gt;&lt;br&gt;&lt;/div&gt;&lt;div&gt;-klient: Klient&lt;/div&gt;" style="text;strokeColor=none;fillColor=none;align=left;verticalAlign=top;spacingLeft=4;spacingRight=4;overflow=hidden;rotatable=0;points=[[0,0.5],[1,0.5]];portConstraint=eastwest;whiteSpace=wrap;html=1;" parent="dG1rmitJ3FAkhmSAQ_D8-13" vertex="1">
          <mxGeometry y="26" width="160" height="64" as="geometry" />
        </mxCell>
        <mxCell id="dG1rmitJ3FAkhmSAQ_D8-15" value="" style="line;strokeWidth=1;fillColor=none;align=left;verticalAlign=middle;spacingTop=-1;spacingLeft=3;spacingRight=3;rotatable=0;labelPosition=right;points=[];portConstraint=eastwest;strokeColor=inherit;" parent="dG1rmitJ3FAkhmSAQ_D8-13" vertex="1">
          <mxGeometry y="90" width="160" height="8" as="geometry" />
        </mxCell>
        <mxCell id="dG1rmitJ3FAkhmSAQ_D8-16" value="." style="text;strokeColor=none;fillColor=none;align=left;verticalAlign=top;spacingLeft=4;spacingRight=4;overflow=hidden;rotatable=0;points=[[0,0.5],[1,0.5]];portConstraint=eastwest;whiteSpace=wrap;html=1;" parent="dG1rmitJ3FAkhmSAQ_D8-13" vertex="1">
          <mxGeometry y="98" width="160" height="22" as="geometry" />
        </mxCell>
        <mxCell id="dG1rmitJ3FAkhmSAQ_D8-17" value="Umowa" style="swimlane;fontStyle=1;align=center;verticalAlign=top;childLayout=stackLayout;horizontal=1;startSize=26;horizontalStack=0;resizeParent=1;resizeParentMax=0;resizeLast=0;collapsible=1;marginBottom=0;whiteSpace=wrap;html=1;" parent="1" vertex="1">
          <mxGeometry x="990" y="458" width="160" height="110" as="geometry" />
        </mxCell>
        <mxCell id="dG1rmitJ3FAkhmSAQ_D8-18" value="&lt;div&gt;#id_umowy: int&lt;/div&gt;&lt;div&gt;&lt;span style=&quot;background-color: initial;&quot;&gt;#klient: Klient&lt;/span&gt;&lt;br&gt;&lt;/div&gt;&lt;div&gt;#pracownik: Pracownik&lt;/div&gt;" style="text;strokeColor=none;fillColor=none;align=left;verticalAlign=top;spacingLeft=4;spacingRight=4;overflow=hidden;rotatable=0;points=[[0,0.5],[1,0.5]];portConstraint=eastwest;whiteSpace=wrap;html=1;" parent="dG1rmitJ3FAkhmSAQ_D8-17" vertex="1">
          <mxGeometry y="26" width="160" height="54" as="geometry" />
        </mxCell>
        <mxCell id="dG1rmitJ3FAkhmSAQ_D8-19" value="" style="line;strokeWidth=1;fillColor=none;align=left;verticalAlign=middle;spacingTop=-1;spacingLeft=3;spacingRight=3;rotatable=0;labelPosition=right;points=[];portConstraint=eastwest;strokeColor=inherit;" parent="dG1rmitJ3FAkhmSAQ_D8-17" vertex="1">
          <mxGeometry y="80" width="160" height="8" as="geometry" />
        </mxCell>
        <mxCell id="dG1rmitJ3FAkhmSAQ_D8-20" value="+pobierz_cene(): float" style="text;strokeColor=none;fillColor=none;align=left;verticalAlign=top;spacingLeft=4;spacingRight=4;overflow=hidden;rotatable=0;points=[[0,0.5],[1,0.5]];portConstraint=eastwest;whiteSpace=wrap;html=1;" parent="dG1rmitJ3FAkhmSAQ_D8-17" vertex="1">
          <mxGeometry y="88" width="160" height="22" as="geometry" />
        </mxCell>
        <mxCell id="dG1rmitJ3FAkhmSAQ_D8-21" value="Płatność" style="swimlane;fontStyle=1;align=center;verticalAlign=top;childLayout=stackLayout;horizontal=1;startSize=26;horizontalStack=0;resizeParent=1;resizeParentMax=0;resizeLast=0;collapsible=1;marginBottom=0;whiteSpace=wrap;html=1;" parent="1" vertex="1">
          <mxGeometry x="1180" y="610" width="160" height="114" as="geometry" />
        </mxCell>
        <mxCell id="dG1rmitJ3FAkhmSAQ_D8-22" value="&lt;div&gt;-id_transakcji: int&lt;/div&gt;&lt;div&gt;-kwota: float&lt;/div&gt;&lt;div&gt;-sposób_transakcji: str&lt;/div&gt;" style="text;strokeColor=none;fillColor=none;align=left;verticalAlign=top;spacingLeft=4;spacingRight=4;overflow=hidden;rotatable=0;points=[[0,0.5],[1,0.5]];portConstraint=eastwest;whiteSpace=wrap;html=1;" parent="dG1rmitJ3FAkhmSAQ_D8-21" vertex="1">
          <mxGeometry y="26" width="160" height="54" as="geometry" />
        </mxCell>
        <mxCell id="dG1rmitJ3FAkhmSAQ_D8-23" value="" style="line;strokeWidth=1;fillColor=none;align=left;verticalAlign=middle;spacingTop=-1;spacingLeft=3;spacingRight=3;rotatable=0;labelPosition=right;points=[];portConstraint=eastwest;strokeColor=inherit;" parent="dG1rmitJ3FAkhmSAQ_D8-21" vertex="1">
          <mxGeometry y="80" width="160" height="8" as="geometry" />
        </mxCell>
        <mxCell id="dG1rmitJ3FAkhmSAQ_D8-24" value="+dokonaj_platnosci(): void" style="text;strokeColor=none;fillColor=none;align=left;verticalAlign=top;spacingLeft=4;spacingRight=4;overflow=hidden;rotatable=0;points=[[0,0.5],[1,0.5]];portConstraint=eastwest;whiteSpace=wrap;html=1;" parent="dG1rmitJ3FAkhmSAQ_D8-21" vertex="1">
          <mxGeometry y="88" width="160" height="26" as="geometry" />
        </mxCell>
        <mxCell id="dG1rmitJ3FAkhmSAQ_D8-25" value="Model samochodu" style="swimlane;fontStyle=1;align=center;verticalAlign=top;childLayout=stackLayout;horizontal=1;startSize=26;horizontalStack=0;resizeParent=1;resizeParentMax=0;resizeLast=0;collapsible=1;marginBottom=0;whiteSpace=wrap;html=1;" parent="1" vertex="1">
          <mxGeometry x="1320" y="196" width="180" height="124" as="geometry" />
        </mxCell>
        <mxCell id="dG1rmitJ3FAkhmSAQ_D8-26" value="&lt;div&gt;-id_modelu: int&lt;/div&gt;&lt;div&gt;-marka: MarkaSamochodu&lt;/div&gt;&lt;div&gt;-nazwa: str&lt;/div&gt;" style="text;strokeColor=none;fillColor=none;align=left;verticalAlign=top;spacingLeft=4;spacingRight=4;overflow=hidden;rotatable=0;points=[[0,0.5],[1,0.5]];portConstraint=eastwest;whiteSpace=wrap;html=1;" parent="dG1rmitJ3FAkhmSAQ_D8-25" vertex="1">
          <mxGeometry y="26" width="180" height="64" as="geometry" />
        </mxCell>
        <mxCell id="dG1rmitJ3FAkhmSAQ_D8-27" value="" style="line;strokeWidth=1;fillColor=none;align=left;verticalAlign=middle;spacingTop=-1;spacingLeft=3;spacingRight=3;rotatable=0;labelPosition=right;points=[];portConstraint=eastwest;strokeColor=inherit;" parent="dG1rmitJ3FAkhmSAQ_D8-25" vertex="1">
          <mxGeometry y="90" width="180" height="8" as="geometry" />
        </mxCell>
        <mxCell id="dG1rmitJ3FAkhmSAQ_D8-28" value="." style="text;strokeColor=none;fillColor=none;align=left;verticalAlign=top;spacingLeft=4;spacingRight=4;overflow=hidden;rotatable=0;points=[[0,0.5],[1,0.5]];portConstraint=eastwest;whiteSpace=wrap;html=1;" parent="dG1rmitJ3FAkhmSAQ_D8-25" vertex="1">
          <mxGeometry y="98" width="180" height="26" as="geometry" />
        </mxCell>
        <mxCell id="dG1rmitJ3FAkhmSAQ_D8-29" value="Marka samochodu" style="swimlane;fontStyle=1;align=center;verticalAlign=top;childLayout=stackLayout;horizontal=1;startSize=26;horizontalStack=0;resizeParent=1;resizeParentMax=0;resizeLast=0;collapsible=1;marginBottom=0;whiteSpace=wrap;html=1;" parent="1" vertex="1">
          <mxGeometry x="1320" y="38" width="160" height="100" as="geometry" />
        </mxCell>
        <mxCell id="dG1rmitJ3FAkhmSAQ_D8-30" value="&lt;div&gt;-id_marki: int&lt;/div&gt;&lt;div&gt;-nazwa: str&lt;/div&gt;" style="text;strokeColor=none;fillColor=none;align=left;verticalAlign=top;spacingLeft=4;spacingRight=4;overflow=hidden;rotatable=0;points=[[0,0.5],[1,0.5]];portConstraint=eastwest;whiteSpace=wrap;html=1;" parent="dG1rmitJ3FAkhmSAQ_D8-29" vertex="1">
          <mxGeometry y="26" width="160" height="44" as="geometry" />
        </mxCell>
        <mxCell id="dG1rmitJ3FAkhmSAQ_D8-31" value="" style="line;strokeWidth=1;fillColor=none;align=left;verticalAlign=middle;spacingTop=-1;spacingLeft=3;spacingRight=3;rotatable=0;labelPosition=right;points=[];portConstraint=eastwest;strokeColor=inherit;" parent="dG1rmitJ3FAkhmSAQ_D8-29" vertex="1">
          <mxGeometry y="70" width="160" height="8" as="geometry" />
        </mxCell>
        <mxCell id="dG1rmitJ3FAkhmSAQ_D8-32" value="." style="text;strokeColor=none;fillColor=none;align=left;verticalAlign=top;spacingLeft=4;spacingRight=4;overflow=hidden;rotatable=0;points=[[0,0.5],[1,0.5]];portConstraint=eastwest;whiteSpace=wrap;html=1;" parent="dG1rmitJ3FAkhmSAQ_D8-29" vertex="1">
          <mxGeometry y="78" width="160" height="22" as="geometry" />
        </mxCell>
        <mxCell id="dG1rmitJ3FAkhmSAQ_D8-33" value="Rodzaj Paliwa" style="swimlane;fontStyle=1;align=center;verticalAlign=top;childLayout=stackLayout;horizontal=1;startSize=26;horizontalStack=0;resizeParent=1;resizeParentMax=0;resizeLast=0;collapsible=1;marginBottom=0;whiteSpace=wrap;html=1;" parent="1" vertex="1">
          <mxGeometry x="1310" y="470" width="160" height="86" as="geometry" />
        </mxCell>
        <mxCell id="dG1rmitJ3FAkhmSAQ_D8-34" value="-nazwa: str" style="text;strokeColor=none;fillColor=none;align=left;verticalAlign=top;spacingLeft=4;spacingRight=4;overflow=hidden;rotatable=0;points=[[0,0.5],[1,0.5]];portConstraint=eastwest;whiteSpace=wrap;html=1;" parent="dG1rmitJ3FAkhmSAQ_D8-33" vertex="1">
          <mxGeometry y="26" width="160" height="26" as="geometry" />
        </mxCell>
        <mxCell id="dG1rmitJ3FAkhmSAQ_D8-35" value="" style="line;strokeWidth=1;fillColor=none;align=left;verticalAlign=middle;spacingTop=-1;spacingLeft=3;spacingRight=3;rotatable=0;labelPosition=right;points=[];portConstraint=eastwest;strokeColor=inherit;" parent="dG1rmitJ3FAkhmSAQ_D8-33" vertex="1">
          <mxGeometry y="52" width="160" height="8" as="geometry" />
        </mxCell>
        <mxCell id="dG1rmitJ3FAkhmSAQ_D8-36" value="." style="text;strokeColor=none;fillColor=none;align=left;verticalAlign=top;spacingLeft=4;spacingRight=4;overflow=hidden;rotatable=0;points=[[0,0.5],[1,0.5]];portConstraint=eastwest;whiteSpace=wrap;html=1;" parent="dG1rmitJ3FAkhmSAQ_D8-33" vertex="1">
          <mxGeometry y="60" width="160" height="26" as="geometry" />
        </mxCell>
        <mxCell id="dG1rmitJ3FAkhmSAQ_D8-37" value="Stan samochodu" style="swimlane;fontStyle=1;align=center;verticalAlign=top;childLayout=stackLayout;horizontal=1;startSize=26;horizontalStack=0;resizeParent=1;resizeParentMax=0;resizeLast=0;collapsible=1;marginBottom=0;whiteSpace=wrap;html=1;" parent="1" vertex="1">
          <mxGeometry x="1320" y="350" width="160" height="86" as="geometry" />
        </mxCell>
        <mxCell id="dG1rmitJ3FAkhmSAQ_D8-38" value="-nazwa: str" style="text;strokeColor=none;fillColor=none;align=left;verticalAlign=top;spacingLeft=4;spacingRight=4;overflow=hidden;rotatable=0;points=[[0,0.5],[1,0.5]];portConstraint=eastwest;whiteSpace=wrap;html=1;" parent="dG1rmitJ3FAkhmSAQ_D8-37" vertex="1">
          <mxGeometry y="26" width="160" height="26" as="geometry" />
        </mxCell>
        <mxCell id="dG1rmitJ3FAkhmSAQ_D8-39" value="" style="line;strokeWidth=1;fillColor=none;align=left;verticalAlign=middle;spacingTop=-1;spacingLeft=3;spacingRight=3;rotatable=0;labelPosition=right;points=[];portConstraint=eastwest;strokeColor=inherit;" parent="dG1rmitJ3FAkhmSAQ_D8-37" vertex="1">
          <mxGeometry y="52" width="160" height="8" as="geometry" />
        </mxCell>
        <mxCell id="dG1rmitJ3FAkhmSAQ_D8-40" value="." style="text;strokeColor=none;fillColor=none;align=left;verticalAlign=top;spacingLeft=4;spacingRight=4;overflow=hidden;rotatable=0;points=[[0,0.5],[1,0.5]];portConstraint=eastwest;whiteSpace=wrap;html=1;" parent="dG1rmitJ3FAkhmSAQ_D8-37" vertex="1">
          <mxGeometry y="60" width="160" height="26" as="geometry" />
        </mxCell>
        <mxCell id="dG1rmitJ3FAkhmSAQ_D8-41" value="Samochód" style="swimlane;fontStyle=1;align=center;verticalAlign=top;childLayout=stackLayout;horizontal=1;startSize=26;horizontalStack=0;resizeParent=1;resizeParentMax=0;resizeLast=0;collapsible=1;marginBottom=0;whiteSpace=wrap;html=1;" parent="1" vertex="1">
          <mxGeometry x="1010" y="138" width="260" height="240" as="geometry" />
        </mxCell>
        <mxCell id="dG1rmitJ3FAkhmSAQ_D8-42" value="&lt;div&gt;#id_samochodu: int&amp;nbsp;&lt;/div&gt;&lt;div&gt;&lt;span style=&quot;background-color: initial;&quot;&gt;#model: ModelSamochodu&amp;nbsp;&lt;/span&gt;&lt;/div&gt;&lt;div&gt;#rok_produkcji: int&amp;nbsp;&lt;/div&gt;&lt;div&gt;#przebieg: int&amp;nbsp;&lt;/div&gt;&lt;div&gt;#kolor: str&lt;/div&gt;&lt;div&gt;#rodzaj_paliwa: RodzajPaliwa&lt;/div&gt;&lt;div&gt;#cena: float&lt;/div&gt;&lt;div&gt;#stan: StanSamochodu&lt;/div&gt;&lt;div&gt;#status: str&lt;/div&gt;&lt;div&gt;&lt;span style=&quot;background-color: initial;&quot;&gt;-historia_napraw: List[NaprawaSamochodu]&lt;/span&gt;&lt;/div&gt;" style="text;strokeColor=none;fillColor=none;align=left;verticalAlign=top;spacingLeft=4;spacingRight=4;overflow=hidden;rotatable=0;points=[[0,0.5],[1,0.5]];portConstraint=eastwest;whiteSpace=wrap;html=1;" parent="dG1rmitJ3FAkhmSAQ_D8-41" vertex="1">
          <mxGeometry y="26" width="260" height="154" as="geometry" />
        </mxCell>
        <mxCell id="dG1rmitJ3FAkhmSAQ_D8-43" value="" style="line;strokeWidth=1;fillColor=none;align=left;verticalAlign=middle;spacingTop=-1;spacingLeft=3;spacingRight=3;rotatable=0;labelPosition=right;points=[];portConstraint=eastwest;strokeColor=inherit;" parent="dG1rmitJ3FAkhmSAQ_D8-41" vertex="1">
          <mxGeometry y="180" width="260" height="8" as="geometry" />
        </mxCell>
        <mxCell id="dG1rmitJ3FAkhmSAQ_D8-44" value="+zmien_status(str): void&lt;br&gt;+dodaj_naprawe(NaprawaSamochodu) : void&lt;br&gt;+zmien_cene(float): void" style="text;strokeColor=none;fillColor=none;align=left;verticalAlign=top;spacingLeft=4;spacingRight=4;overflow=hidden;rotatable=0;points=[[0,0.5],[1,0.5]];portConstraint=eastwest;whiteSpace=wrap;html=1;" parent="dG1rmitJ3FAkhmSAQ_D8-41" vertex="1">
          <mxGeometry y="188" width="260" height="52" as="geometry" />
        </mxCell>
        <mxCell id="dG1rmitJ3FAkhmSAQ_D8-45" value="Naprawa samochodu" style="swimlane;fontStyle=1;align=center;verticalAlign=top;childLayout=stackLayout;horizontal=1;startSize=26;horizontalStack=0;resizeParent=1;resizeParentMax=0;resizeLast=0;collapsible=1;marginBottom=0;whiteSpace=wrap;html=1;" parent="1" vertex="1">
          <mxGeometry x="750" y="170" width="210" height="170" as="geometry" />
        </mxCell>
        <mxCell id="dG1rmitJ3FAkhmSAQ_D8-46" value="&lt;div&gt;-id_naprawy: int&lt;/div&gt;&lt;div&gt;-samochod: Samochod&lt;/div&gt;&lt;div&gt;-opis_uszkodzenia: str&lt;/div&gt;&lt;div&gt;-data_zgloszenia: date&lt;/div&gt;&lt;div&gt;-data_naprawy: date&lt;/div&gt;&lt;div&gt;-koszt_naprawy: float&lt;/div&gt;" style="text;strokeColor=none;fillColor=none;align=left;verticalAlign=top;spacingLeft=4;spacingRight=4;overflow=hidden;rotatable=0;points=[[0,0.5],[1,0.5]];portConstraint=eastwest;whiteSpace=wrap;html=1;" parent="dG1rmitJ3FAkhmSAQ_D8-45" vertex="1">
          <mxGeometry y="26" width="210" height="94" as="geometry" />
        </mxCell>
        <mxCell id="dG1rmitJ3FAkhmSAQ_D8-47" value="" style="line;strokeWidth=1;fillColor=none;align=left;verticalAlign=middle;spacingTop=-1;spacingLeft=3;spacingRight=3;rotatable=0;labelPosition=right;points=[];portConstraint=eastwest;strokeColor=inherit;" parent="dG1rmitJ3FAkhmSAQ_D8-45" vertex="1">
          <mxGeometry y="120" width="210" height="8" as="geometry" />
        </mxCell>
        <mxCell id="dG1rmitJ3FAkhmSAQ_D8-48" value="&lt;div&gt;+ustaw_koszt_naprawy(float): void&lt;/div&gt;&lt;div&gt;+pobierz_koszt_naprawy(): float&lt;/div&gt;" style="text;strokeColor=none;fillColor=none;align=left;verticalAlign=top;spacingLeft=4;spacingRight=4;overflow=hidden;rotatable=0;points=[[0,0.5],[1,0.5]];portConstraint=eastwest;whiteSpace=wrap;html=1;" parent="dG1rmitJ3FAkhmSAQ_D8-45" vertex="1">
          <mxGeometry y="128" width="210" height="42" as="geometry" />
        </mxCell>
        <mxCell id="dG1rmitJ3FAkhmSAQ_D8-49" value="Ubezpieczenie" style="swimlane;fontStyle=1;align=center;verticalAlign=top;childLayout=stackLayout;horizontal=1;startSize=26;horizontalStack=0;resizeParent=1;resizeParentMax=0;resizeLast=0;collapsible=1;marginBottom=0;whiteSpace=wrap;html=1;" parent="1" vertex="1">
          <mxGeometry x="780" y="10" width="160" height="114" as="geometry" />
        </mxCell>
        <mxCell id="dG1rmitJ3FAkhmSAQ_D8-50" value="&lt;div&gt;-id_ubezpieczenia: int&lt;/div&gt;&lt;div&gt;-typ_ubezpieczenia: str&lt;/div&gt;&lt;div&gt;-cena: float&lt;/div&gt;" style="text;strokeColor=none;fillColor=none;align=left;verticalAlign=top;spacingLeft=4;spacingRight=4;overflow=hidden;rotatable=0;points=[[0,0.5],[1,0.5]];portConstraint=eastwest;whiteSpace=wrap;html=1;" parent="dG1rmitJ3FAkhmSAQ_D8-49" vertex="1">
          <mxGeometry y="26" width="160" height="54" as="geometry" />
        </mxCell>
        <mxCell id="dG1rmitJ3FAkhmSAQ_D8-51" value="" style="line;strokeWidth=1;fillColor=none;align=left;verticalAlign=middle;spacingTop=-1;spacingLeft=3;spacingRight=3;rotatable=0;labelPosition=right;points=[];portConstraint=eastwest;strokeColor=inherit;" parent="dG1rmitJ3FAkhmSAQ_D8-49" vertex="1">
          <mxGeometry y="80" width="160" height="8" as="geometry" />
        </mxCell>
        <mxCell id="dG1rmitJ3FAkhmSAQ_D8-52" value="." style="text;strokeColor=none;fillColor=none;align=left;verticalAlign=top;spacingLeft=4;spacingRight=4;overflow=hidden;rotatable=0;points=[[0,0.5],[1,0.5]];portConstraint=eastwest;whiteSpace=wrap;html=1;" parent="dG1rmitJ3FAkhmSAQ_D8-49" vertex="1">
          <mxGeometry y="88" width="160" height="26" as="geometry" />
        </mxCell>
        <mxCell id="dG1rmitJ3FAkhmSAQ_D8-54" value="Umowa Kupna" style="swimlane;fontStyle=1;align=center;verticalAlign=top;childLayout=stackLayout;horizontal=1;startSize=26;horizontalStack=0;resizeParent=1;resizeParentMax=0;resizeLast=0;collapsible=1;marginBottom=0;whiteSpace=wrap;html=1;" parent="1" vertex="1">
          <mxGeometry x="780" y="610" width="160" height="114" as="geometry" />
        </mxCell>
        <mxCell id="dG1rmitJ3FAkhmSAQ_D8-55" value="-cena sprzedaży: float&lt;br style=&quot;border-color: var(--border-color);&quot;&gt;-data zapłaty: date&lt;br style=&quot;border-color: var(--border-color);&quot;&gt;-liczba_rat: float" style="text;strokeColor=none;fillColor=none;align=left;verticalAlign=top;spacingLeft=4;spacingRight=4;overflow=hidden;rotatable=0;points=[[0,0.5],[1,0.5]];portConstraint=eastwest;whiteSpace=wrap;html=1;" parent="dG1rmitJ3FAkhmSAQ_D8-54" vertex="1">
          <mxGeometry y="26" width="160" height="54" as="geometry" />
        </mxCell>
        <mxCell id="dG1rmitJ3FAkhmSAQ_D8-56" value="" style="line;strokeWidth=1;fillColor=none;align=left;verticalAlign=middle;spacingTop=-1;spacingLeft=3;spacingRight=3;rotatable=0;labelPosition=right;points=[];portConstraint=eastwest;strokeColor=inherit;" parent="dG1rmitJ3FAkhmSAQ_D8-54" vertex="1">
          <mxGeometry y="80" width="160" height="8" as="geometry" />
        </mxCell>
        <mxCell id="dG1rmitJ3FAkhmSAQ_D8-57" value="+ method(type): type" style="text;strokeColor=none;fillColor=none;align=left;verticalAlign=top;spacingLeft=4;spacingRight=4;overflow=hidden;rotatable=0;points=[[0,0.5],[1,0.5]];portConstraint=eastwest;whiteSpace=wrap;html=1;" parent="dG1rmitJ3FAkhmSAQ_D8-54" vertex="1">
          <mxGeometry y="88" width="160" height="26" as="geometry" />
        </mxCell>
        <mxCell id="dG1rmitJ3FAkhmSAQ_D8-58" value="Umowa sprzedaży" style="swimlane;fontStyle=1;align=center;verticalAlign=top;childLayout=stackLayout;horizontal=1;startSize=26;horizontalStack=0;resizeParent=1;resizeParentMax=0;resizeLast=0;collapsible=1;marginBottom=0;whiteSpace=wrap;html=1;" parent="1" vertex="1">
          <mxGeometry x="990" y="640" width="160" height="114" as="geometry" />
        </mxCell>
        <mxCell id="dG1rmitJ3FAkhmSAQ_D8-59" value="-cena sprzedaży: float&lt;br&gt;-data zapłaty: date&lt;br&gt;-liczba_rat: float" style="text;strokeColor=none;fillColor=none;align=left;verticalAlign=top;spacingLeft=4;spacingRight=4;overflow=hidden;rotatable=0;points=[[0,0.5],[1,0.5]];portConstraint=eastwest;whiteSpace=wrap;html=1;" parent="dG1rmitJ3FAkhmSAQ_D8-58" vertex="1">
          <mxGeometry y="26" width="160" height="54" as="geometry" />
        </mxCell>
        <mxCell id="dG1rmitJ3FAkhmSAQ_D8-60" value="" style="line;strokeWidth=1;fillColor=none;align=left;verticalAlign=middle;spacingTop=-1;spacingLeft=3;spacingRight=3;rotatable=0;labelPosition=right;points=[];portConstraint=eastwest;strokeColor=inherit;" parent="dG1rmitJ3FAkhmSAQ_D8-58" vertex="1">
          <mxGeometry y="80" width="160" height="8" as="geometry" />
        </mxCell>
        <mxCell id="dG1rmitJ3FAkhmSAQ_D8-61" value="+ method(type): type" style="text;strokeColor=none;fillColor=none;align=left;verticalAlign=top;spacingLeft=4;spacingRight=4;overflow=hidden;rotatable=0;points=[[0,0.5],[1,0.5]];portConstraint=eastwest;whiteSpace=wrap;html=1;" parent="dG1rmitJ3FAkhmSAQ_D8-58" vertex="1">
          <mxGeometry y="88" width="160" height="26" as="geometry" />
        </mxCell>
        <mxCell id="dG1rmitJ3FAkhmSAQ_D8-62" value="Chatbot" style="swimlane;fontStyle=1;align=center;verticalAlign=top;childLayout=stackLayout;horizontal=1;startSize=26;horizontalStack=0;resizeParent=1;resizeParentMax=0;resizeLast=0;collapsible=1;marginBottom=0;whiteSpace=wrap;html=1;" parent="1" vertex="1">
          <mxGeometry x="100" y="436" width="290" height="100" as="geometry" />
        </mxCell>
        <mxCell id="dG1rmitJ3FAkhmSAQ_D8-63" value="-Klient: Klient&lt;br&gt;-wiadomości: List[str]" style="text;strokeColor=none;fillColor=none;align=left;verticalAlign=top;spacingLeft=4;spacingRight=4;overflow=hidden;rotatable=0;points=[[0,0.5],[1,0.5]];portConstraint=eastwest;whiteSpace=wrap;html=1;" parent="dG1rmitJ3FAkhmSAQ_D8-62" vertex="1">
          <mxGeometry y="26" width="290" height="44" as="geometry" />
        </mxCell>
        <mxCell id="dG1rmitJ3FAkhmSAQ_D8-64" value="" style="line;strokeWidth=1;fillColor=none;align=left;verticalAlign=middle;spacingTop=-1;spacingLeft=3;spacingRight=3;rotatable=0;labelPosition=right;points=[];portConstraint=eastwest;strokeColor=inherit;" parent="dG1rmitJ3FAkhmSAQ_D8-62" vertex="1">
          <mxGeometry y="70" width="290" height="8" as="geometry" />
        </mxCell>
        <mxCell id="dG1rmitJ3FAkhmSAQ_D8-65" value="+Odesłanie_do_pracownika(Klient,Pracownik): void&lt;br&gt;" style="text;strokeColor=none;fillColor=none;align=left;verticalAlign=top;spacingLeft=4;spacingRight=4;overflow=hidden;rotatable=0;points=[[0,0.5],[1,0.5]];portConstraint=eastwest;whiteSpace=wrap;html=1;" parent="dG1rmitJ3FAkhmSAQ_D8-62" vertex="1">
          <mxGeometry y="78" width="290" height="22" as="geometry" />
        </mxCell>
        <mxCell id="trF14KNN64LVfDal_19x-1" value="" style="endArrow=block;endFill=1;html=1;edgeStyle=orthogonalEdgeStyle;align=left;verticalAlign=top;rounded=0;exitX=0.01;exitY=1.041;exitDx=0;exitDy=0;exitPerimeter=0;entryX=0.5;entryY=0;entryDx=0;entryDy=0;" parent="1" source="dG1rmitJ3FAkhmSAQ_D8-10" target="dG1rmitJ3FAkhmSAQ_D8-13" edge="1">
          <mxGeometry x="-1" relative="1" as="geometry">
            <mxPoint x="100" y="340" as="sourcePoint" />
            <mxPoint x="260" y="340" as="targetPoint" />
          </mxGeometry>
        </mxCell>
        <mxCell id="trF14KNN64LVfDal_19x-4" value="" style="endArrow=block;endFill=1;html=1;edgeStyle=orthogonalEdgeStyle;align=left;verticalAlign=top;rounded=0;exitX=0.75;exitY=0;exitDx=0;exitDy=0;entryX=0;entryY=0.5;entryDx=0;entryDy=0;" parent="1" source="dG1rmitJ3FAkhmSAQ_D8-41" target="dG1rmitJ3FAkhmSAQ_D8-30" edge="1">
          <mxGeometry x="-1" relative="1" as="geometry">
            <mxPoint x="1390" y="620" as="sourcePoint" />
            <mxPoint x="1550" y="620" as="targetPoint" />
          </mxGeometry>
        </mxCell>
        <mxCell id="trF14KNN64LVfDal_19x-5" value="" style="endArrow=block;endFill=1;html=1;edgeStyle=orthogonalEdgeStyle;align=left;verticalAlign=top;rounded=0;exitX=1;exitY=0.5;exitDx=0;exitDy=0;entryX=0.002;entryY=0.292;entryDx=0;entryDy=0;entryPerimeter=0;" parent="1" source="dG1rmitJ3FAkhmSAQ_D8-42" target="dG1rmitJ3FAkhmSAQ_D8-26" edge="1">
          <mxGeometry x="-1" relative="1" as="geometry">
            <mxPoint x="1390" y="630" as="sourcePoint" />
            <mxPoint x="1550" y="630" as="targetPoint" />
          </mxGeometry>
        </mxCell>
        <mxCell id="trF14KNN64LVfDal_19x-7" value="" style="endArrow=block;endFill=1;html=1;edgeStyle=orthogonalEdgeStyle;align=left;verticalAlign=top;rounded=0;exitX=1;exitY=0.5;exitDx=0;exitDy=0;entryX=0;entryY=0.5;entryDx=0;entryDy=0;" parent="1" source="dG1rmitJ3FAkhmSAQ_D8-44" target="dG1rmitJ3FAkhmSAQ_D8-34" edge="1">
          <mxGeometry x="-1" relative="1" as="geometry">
            <mxPoint x="1410" y="650" as="sourcePoint" />
            <mxPoint x="1570" y="650" as="targetPoint" />
          </mxGeometry>
        </mxCell>
        <mxCell id="trF14KNN64LVfDal_19x-9" value="" style="endArrow=block;endFill=1;html=1;edgeStyle=orthogonalEdgeStyle;align=left;verticalAlign=top;rounded=0;exitX=0.5;exitY=0;exitDx=0;exitDy=0;entryX=0.892;entryY=1.009;entryDx=0;entryDy=0;entryPerimeter=0;" parent="1" source="dG1rmitJ3FAkhmSAQ_D8-17" target="dG1rmitJ3FAkhmSAQ_D8-12" edge="1">
          <mxGeometry x="-1" relative="1" as="geometry">
            <mxPoint x="432" y="578" as="sourcePoint" />
            <mxPoint x="280" y="530" as="targetPoint" />
            <Array as="points">
              <mxPoint x="1070" y="400" />
              <mxPoint x="653" y="400" />
            </Array>
          </mxGeometry>
        </mxCell>
        <mxCell id="trF14KNN64LVfDal_19x-10" value="" style="endArrow=block;endFill=1;html=1;edgeStyle=orthogonalEdgeStyle;align=left;verticalAlign=top;rounded=0;exitX=1;exitY=0.5;exitDx=0;exitDy=0;entryX=0.5;entryY=0;entryDx=0;entryDy=0;" parent="1" source="dG1rmitJ3FAkhmSAQ_D8-18" target="dG1rmitJ3FAkhmSAQ_D8-21" edge="1">
          <mxGeometry x="-1" relative="1" as="geometry">
            <mxPoint x="922" y="548" as="sourcePoint" />
            <mxPoint x="770" y="500" as="targetPoint" />
            <Array as="points">
              <mxPoint x="1260" y="511" />
            </Array>
          </mxGeometry>
        </mxCell>
        <mxCell id="trF14KNN64LVfDal_19x-11" value="&lt;span style=&quot;white-space: pre;&quot;&gt; &lt;/span&gt;&lt;span style=&quot;white-space: pre;&quot;&gt; &lt;/span&gt;&lt;span style=&quot;white-space: pre;&quot;&gt; &lt;/span&gt;" style="endArrow=block;endFill=1;html=1;edgeStyle=orthogonalEdgeStyle;align=left;verticalAlign=top;rounded=0;exitX=1;exitY=0.5;exitDx=0;exitDy=0;entryX=0;entryY=0.5;entryDx=0;entryDy=0;" parent="1" source="dG1rmitJ3FAkhmSAQ_D8-10" target="dG1rmitJ3FAkhmSAQ_D8-50" edge="1">
          <mxGeometry x="-1" relative="1" as="geometry">
            <mxPoint x="990" y="40" as="sourcePoint" />
            <mxPoint x="1150" y="40" as="targetPoint" />
          </mxGeometry>
        </mxCell>
        <mxCell id="trF14KNN64LVfDal_19x-14" value="&lt;span style=&quot;white-space: pre;&quot;&gt; &lt;/span&gt;&lt;span style=&quot;white-space: pre;&quot;&gt; &lt;/span&gt;&lt;span style=&quot;white-space: pre;&quot;&gt; &lt;/span&gt;" style="endArrow=block;endFill=1;html=1;edgeStyle=orthogonalEdgeStyle;align=left;verticalAlign=top;rounded=0;exitX=1;exitY=0.5;exitDx=0;exitDy=0;entryX=0;entryY=0.5;entryDx=0;entryDy=0;" parent="1" source="dG1rmitJ3FAkhmSAQ_D8-12" target="dG1rmitJ3FAkhmSAQ_D8-46" edge="1">
          <mxGeometry x="-1" relative="1" as="geometry">
            <mxPoint x="1000" y="50" as="sourcePoint" />
            <mxPoint x="1160" y="50" as="targetPoint" />
          </mxGeometry>
        </mxCell>
        <mxCell id="trF14KNN64LVfDal_19x-15" value="" style="endArrow=diamondThin;endFill=0;endSize=24;html=1;rounded=0;exitX=0;exitY=0.5;exitDx=0;exitDy=0;entryX=1;entryY=0.5;entryDx=0;entryDy=0;" parent="1" source="dG1rmitJ3FAkhmSAQ_D8-42" target="dG1rmitJ3FAkhmSAQ_D8-46" edge="1">
          <mxGeometry width="160" relative="1" as="geometry">
            <mxPoint x="1010" y="30" as="sourcePoint" />
            <mxPoint x="1170" y="30" as="targetPoint" />
          </mxGeometry>
        </mxCell>
        <mxCell id="trF14KNN64LVfDal_19x-16" value="" style="endArrow=diamondThin;endFill=0;endSize=24;html=1;rounded=0;exitX=0.5;exitY=0;exitDx=0;exitDy=0;entryX=1;entryY=0.5;entryDx=0;entryDy=0;" parent="1" source="dG1rmitJ3FAkhmSAQ_D8-41" target="dG1rmitJ3FAkhmSAQ_D8-50" edge="1">
          <mxGeometry width="160" relative="1" as="geometry">
            <mxPoint x="1020" y="40" as="sourcePoint" />
            <mxPoint x="1180" y="40" as="targetPoint" />
          </mxGeometry>
        </mxCell>
        <mxCell id="trF14KNN64LVfDal_19x-17" value="" style="endArrow=diamondThin;endFill=1;endSize=24;html=1;rounded=0;entryX=1;entryY=0.5;entryDx=0;entryDy=0;exitX=0.5;exitY=0;exitDx=0;exitDy=0;" parent="1" source="dG1rmitJ3FAkhmSAQ_D8-37" target="dG1rmitJ3FAkhmSAQ_D8-44" edge="1">
          <mxGeometry width="160" relative="1" as="geometry">
            <mxPoint x="1430" y="610" as="sourcePoint" />
            <mxPoint x="1590" y="610" as="targetPoint" />
          </mxGeometry>
        </mxCell>
        <mxCell id="trF14KNN64LVfDal_19x-18" value="" style="endArrow=block;dashed=1;endFill=0;endSize=12;html=1;rounded=0;exitX=1;exitY=0.5;exitDx=0;exitDy=0;entryX=0;entryY=0.5;entryDx=0;entryDy=0;" parent="1" source="dG1rmitJ3FAkhmSAQ_D8-65" target="dG1rmitJ3FAkhmSAQ_D8-6" edge="1">
          <mxGeometry width="160" relative="1" as="geometry">
            <mxPoint x="180" y="650" as="sourcePoint" />
            <mxPoint x="340" y="650" as="targetPoint" />
          </mxGeometry>
        </mxCell>
        <mxCell id="trF14KNN64LVfDal_19x-19" value="Extends" style="endArrow=block;endSize=16;endFill=0;html=1;rounded=0;exitX=0.5;exitY=0;exitDx=0;exitDy=0;entryX=0;entryY=0.5;entryDx=0;entryDy=0;" parent="1" source="dG1rmitJ3FAkhmSAQ_D8-54" target="dG1rmitJ3FAkhmSAQ_D8-20" edge="1">
          <mxGeometry width="160" relative="1" as="geometry">
            <mxPoint x="170" y="700" as="sourcePoint" />
            <mxPoint x="330" y="700" as="targetPoint" />
          </mxGeometry>
        </mxCell>
        <mxCell id="trF14KNN64LVfDal_19x-20" value="Extends" style="endArrow=block;endSize=16;endFill=0;html=1;rounded=0;exitX=0.5;exitY=0;exitDx=0;exitDy=0;" parent="1" source="dG1rmitJ3FAkhmSAQ_D8-58" target="dG1rmitJ3FAkhmSAQ_D8-20" edge="1">
          <mxGeometry width="160" relative="1" as="geometry">
            <mxPoint x="180" y="710" as="sourcePoint" />
            <mxPoint x="340" y="710" as="targetPoint" />
          </mxGeometry>
        </mxCell>
        <mxCell id="trF14KNN64LVfDal_19x-21" value="" style="endArrow=block;endFill=1;html=1;edgeStyle=orthogonalEdgeStyle;align=left;verticalAlign=top;rounded=0;exitX=0.25;exitY=0;exitDx=0;exitDy=0;entryX=1;entryY=0.5;entryDx=0;entryDy=0;" parent="1" source="dG1rmitJ3FAkhmSAQ_D8-5" target="dG1rmitJ3FAkhmSAQ_D8-16" edge="1">
          <mxGeometry x="-1" relative="1" as="geometry">
            <mxPoint x="363" y="214" as="sourcePoint" />
            <mxPoint x="230" y="230" as="targetPoint" />
            <Array as="points">
              <mxPoint x="485" y="380" />
              <mxPoint x="310" y="380" />
              <mxPoint x="310" y="329" />
            </Array>
          </mxGeometry>
        </mxCell>
        <mxCell id="trF14KNN64LVfDal_19x-22" value="" style="endArrow=block;startArrow=block;endFill=1;startFill=1;html=1;rounded=0;entryX=0;entryY=0.5;entryDx=0;entryDy=0;exitX=0.5;exitY=0;exitDx=0;exitDy=0;" parent="1" source="dG1rmitJ3FAkhmSAQ_D8-62" target="dG1rmitJ3FAkhmSAQ_D8-12" edge="1">
          <mxGeometry width="160" relative="1" as="geometry">
            <mxPoint x="190" y="600" as="sourcePoint" />
            <mxPoint x="350" y="600" as="targetPoint" />
          </mxGeometry>
        </mxCell>
        <mxCell id="trF14KNN64LVfDal_19x-23" value="" style="endArrow=block;endFill=1;html=1;edgeStyle=orthogonalEdgeStyle;align=left;verticalAlign=top;rounded=0;exitX=0;exitY=0.5;exitDx=0;exitDy=0;entryX=1;entryY=0.5;entryDx=0;entryDy=0;" parent="1" source="dG1rmitJ3FAkhmSAQ_D8-18" target="dG1rmitJ3FAkhmSAQ_D8-6" edge="1">
          <mxGeometry x="-1" relative="1" as="geometry">
            <mxPoint x="1160" y="521" as="sourcePoint" />
            <mxPoint x="1270" y="620" as="targetPoint" />
            <Array as="points">
              <mxPoint x="990" y="514" />
            </Array>
          </mxGeometry>
        </mxCell>
      </root>
    </mxGraphModel>
  </diagram>
</mxfile>
